<svg width="644" height="317" viewBox="0 0 644 317" fill="none" xmlns="http://www.w3.org/2000/svg">
<path d="M24.65 290.5H17.075V308H21.125V303.175H24.65C29.325 303.175 32.25 300.75 32.25 296.85C32.25 292.925 29.325 290.5 24.65 290.5ZM24.425 299.875H21.125V293.8H24.425C26.9 293.8 28.15 294.925 28.15 296.85C28.15 298.75 26.9 299.875 24.425 299.875ZM38.5914 296.325V294.55H34.8664V308H38.7664V301.65C38.7664 299.075 40.1914 297.9 42.3414 297.9C42.6414 297.9 42.8914 297.925 43.2164 297.95V294.35C41.1414 294.35 39.5414 295.025 38.5914 296.325ZM58.5883 301.325C58.5883 297 55.5383 294.35 51.5883 294.35C47.4883 294.35 44.4133 297.25 44.4133 301.275C44.4133 305.275 47.4383 308.2 52.0883 308.2C54.5133 308.2 56.3883 307.45 57.6383 306.025L55.5633 303.775C54.6383 304.65 53.6133 305.075 52.1883 305.075C50.1383 305.075 48.7133 304.05 48.3383 302.375H58.5133C58.5383 302.05 58.5883 301.625 58.5883 301.325ZM51.6133 297.3C53.3633 297.3 54.6383 298.4 54.9133 300.1H48.2883C48.5633 298.375 49.8383 297.3 51.6133 297.3ZM69.1348 294.35C67.3348 294.35 65.8848 294.925 64.9098 296.1V294.55H61.1848V312.85H65.0848V306.575C66.0848 307.675 67.4598 308.2 69.1348 308.2C72.9098 308.2 75.8348 305.5 75.8348 301.275C75.8348 297.05 72.9098 294.35 69.1348 294.35ZM68.4598 305C66.5098 305 65.0348 303.6 65.0348 301.275C65.0348 298.95 66.5098 297.55 68.4598 297.55C70.4098 297.55 71.8848 298.95 71.8848 301.275C71.8848 303.6 70.4098 305 68.4598 305ZM83.6508 294.35C81.5008 294.35 79.3258 294.925 77.8508 295.975L79.2508 298.7C80.2258 297.925 81.7008 297.45 83.1258 297.45C85.2258 297.45 86.2258 298.425 86.2258 300.1H83.1258C79.0258 300.1 77.3508 301.75 77.3508 304.125C77.3508 306.45 79.2258 308.2 82.3758 308.2C84.3508 308.2 85.7508 307.55 86.4758 306.325V308H90.1258V300.325C90.1258 296.25 87.7508 294.35 83.6508 294.35ZM83.3508 305.575C81.9758 305.575 81.1508 304.925 81.1508 303.95C81.1508 303.05 81.7258 302.375 83.5508 302.375H86.2258V303.75C85.7758 304.975 84.6508 305.575 83.3508 305.575ZM97.3805 296.325V294.55H93.6555V308H97.5555V301.65C97.5555 299.075 98.9805 297.9 101.13 297.9C101.43 297.9 101.68 297.925 102.005 297.95V294.35C99.9305 294.35 98.3305 295.025 97.3805 296.325ZM106.274 292.675C107.724 292.675 108.699 291.725 108.699 290.425C108.699 289.225 107.724 288.325 106.274 288.325C104.824 288.325 103.849 289.275 103.849 290.5C103.849 291.725 104.824 292.675 106.274 292.675ZM104.324 308H108.224V294.55H104.324V308ZM120.019 294.35C118.194 294.35 116.619 294.975 115.569 296.125V294.55H111.844V308H115.744V301.35C115.744 298.875 117.094 297.725 118.969 297.725C120.694 297.725 121.694 298.725 121.694 300.9V308H125.594V300.3C125.594 296.2 123.194 294.35 120.019 294.35ZM139.451 294.55V296.275C138.426 294.975 136.876 294.35 135.001 294.35C131.276 294.35 128.276 296.925 128.276 300.85C128.276 304.775 131.276 307.35 135.001 307.35C136.751 307.35 138.226 306.8 139.251 305.675V306.25C139.251 308.675 138.051 309.925 135.301 309.925C133.576 309.925 131.701 309.325 130.551 308.4L129.001 311.2C130.576 312.425 133.051 313.05 135.601 313.05C140.451 313.05 143.151 310.75 143.151 305.75V294.55H139.451ZM135.776 304.15C133.726 304.15 132.226 302.825 132.226 300.85C132.226 298.875 133.726 297.55 135.776 297.55C137.826 297.55 139.301 298.875 139.301 300.85C139.301 302.825 137.826 304.15 135.776 304.15ZM160.261 308.2C164.536 308.2 167.636 305.325 167.636 301.275C167.636 297.225 164.536 294.35 160.261 294.35C155.986 294.35 152.861 297.225 152.861 301.275C152.861 305.325 155.986 308.2 160.261 308.2ZM160.261 305C158.311 305 156.811 303.6 156.811 301.275C156.811 298.95 158.311 297.55 160.261 297.55C162.211 297.55 163.686 298.95 163.686 301.275C163.686 303.6 162.211 305 160.261 305ZM179.892 294.55V301.2C179.892 303.675 178.592 304.825 176.792 304.825C175.067 304.825 174.067 303.825 174.067 301.575V294.55H170.167V302.15C170.167 306.3 172.542 308.2 175.917 308.2C177.567 308.2 179.067 307.575 180.092 306.4V308H183.792V294.55H179.892ZM191.13 296.325V294.55H187.405V308H191.305V301.65C191.305 299.075 192.73 297.9 194.88 297.9C195.18 297.9 195.43 297.925 195.755 297.95V294.35C193.68 294.35 192.08 295.025 191.13 296.325ZM211.752 308.2C214.577 308.2 216.802 306.95 217.777 304.8L214.752 303.15C214.027 304.45 212.952 305 211.727 305C209.752 305 208.202 303.625 208.202 301.275C208.202 298.925 209.752 297.55 211.727 297.55C212.952 297.55 214.027 298.125 214.752 299.4L217.777 297.775C216.802 295.575 214.577 294.35 211.752 294.35C207.377 294.35 204.252 297.225 204.252 301.275C204.252 305.325 207.377 308.2 211.752 308.2ZM228.1 294.35C226.375 294.35 224.875 294.9 223.825 295.95V289.45H219.925V308H223.825V301.35C223.825 298.875 225.175 297.725 227.05 297.725C228.775 297.725 229.775 298.725 229.775 300.9V308H233.675V300.3C233.675 296.2 231.275 294.35 228.1 294.35ZM239.16 292.675C240.61 292.675 241.585 291.725 241.585 290.425C241.585 289.225 240.61 288.325 239.16 288.325C237.71 288.325 236.735 289.275 236.735 290.5C236.735 291.725 237.71 292.675 239.16 292.675ZM237.21 308H241.11V294.55H237.21V308ZM244.73 308H248.63V289.45H244.73V308ZM262.049 289.45V295.975C261.074 294.875 259.674 294.35 258.024 294.35C254.224 294.35 251.299 297.05 251.299 301.275C251.299 305.5 254.224 308.2 258.024 308.2C259.824 308.2 261.249 307.625 262.224 306.45V308H265.949V289.45H262.049ZM258.699 305C256.749 305 255.249 303.6 255.249 301.275C255.249 298.95 256.749 297.55 258.699 297.55C260.624 297.55 262.124 298.95 262.124 301.275C262.124 303.6 260.624 305 258.699 305ZM273.284 296.325V294.55H269.559V308H273.459V301.65C273.459 299.075 274.884 297.9 277.034 297.9C277.334 297.9 277.584 297.925 277.909 297.95V294.35C275.834 294.35 274.234 295.025 273.284 296.325ZM293.281 301.325C293.281 297 290.231 294.35 286.281 294.35C282.181 294.35 279.106 297.25 279.106 301.275C279.106 305.275 282.131 308.2 286.781 308.2C289.206 308.2 291.081 307.45 292.331 306.025L290.256 303.775C289.331 304.65 288.306 305.075 286.881 305.075C284.831 305.075 283.406 304.05 283.031 302.375H293.206C293.231 302.05 293.281 301.625 293.281 301.325ZM286.306 297.3C288.056 297.3 289.331 298.4 289.606 300.1H282.981C283.256 298.375 284.531 297.3 286.306 297.3ZM304.052 294.35C302.227 294.35 300.652 294.975 299.602 296.125V294.55H295.877V308H299.777V301.35C299.777 298.875 301.127 297.725 303.002 297.725C304.727 297.725 305.727 298.725 305.727 300.9V308H309.627V300.3C309.627 296.2 307.227 294.35 304.052 294.35ZM324.517 294.275C324.517 292.95 325.142 292.325 326.292 292.325C326.892 292.325 327.442 292.5 327.867 292.8L328.892 289.975C328.167 289.475 327.017 289.25 325.917 289.25C322.567 289.25 320.717 291.225 320.717 294.25V294.85H318.642V297.85H320.717V308H324.617V297.85H327.967V294.85H324.517V294.275ZM336.139 308.2C340.414 308.2 343.514 305.325 343.514 301.275C343.514 297.225 340.414 294.35 336.139 294.35C331.864 294.35 328.739 297.225 328.739 301.275C328.739 305.325 331.864 308.2 336.139 308.2ZM336.139 305C334.189 305 332.689 303.6 332.689 301.275C332.689 298.95 334.189 297.55 336.139 297.55C338.089 297.55 339.564 298.95 339.564 301.275C339.564 303.6 338.089 305 336.139 305ZM349.846 296.325V294.55H346.121V308H350.021V301.65C350.021 299.075 351.446 297.9 353.596 297.9C353.896 297.9 354.146 297.925 354.471 297.95V294.35C352.396 294.35 350.796 295.025 349.846 296.325ZM371.593 304.6C371.168 304.925 370.593 305.1 370.018 305.1C368.968 305.1 368.343 304.475 368.343 303.325V297.85H371.693V294.85H368.343V291.575H364.443V294.85H362.368V297.85H364.443V303.375C364.443 306.575 366.293 308.2 369.468 308.2C370.668 308.2 371.843 307.925 372.643 307.35L371.593 304.6ZM383.007 294.35C381.282 294.35 379.782 294.9 378.732 295.95V289.45H374.832V308H378.732V301.35C378.732 298.875 380.082 297.725 381.957 297.725C383.682 297.725 384.682 298.725 384.682 300.9V308H388.582V300.3C388.582 296.2 386.182 294.35 383.007 294.35ZM405.439 301.325C405.439 297 402.389 294.35 398.439 294.35C394.339 294.35 391.264 297.25 391.264 301.275C391.264 305.275 394.289 308.2 398.939 308.2C401.364 308.2 403.239 307.45 404.489 306.025L402.414 303.775C401.489 304.65 400.464 305.075 399.039 305.075C396.989 305.075 395.564 304.05 395.189 302.375H405.364C405.389 302.05 405.439 301.625 405.439 301.325ZM398.464 297.3C400.214 297.3 401.489 298.4 401.764 300.1H395.139C395.414 298.375 396.689 297.3 398.464 297.3ZM419.39 294.275C419.39 292.95 420.015 292.325 421.165 292.325C421.765 292.325 422.315 292.5 422.74 292.8L423.765 289.975C423.04 289.475 421.89 289.25 420.79 289.25C417.44 289.25 415.59 291.225 415.59 294.25V294.85H413.515V297.85H415.59V308H419.49V297.85H422.84V294.85H419.39V294.275ZM434.433 294.55V301.2C434.433 303.675 433.133 304.825 431.333 304.825C429.608 304.825 428.608 303.825 428.608 301.575V294.55H424.708V302.15C424.708 306.3 427.083 308.2 430.458 308.2C432.108 308.2 433.608 307.575 434.633 306.4V308H438.333V294.55H434.433ZM449.571 304.6C449.146 304.925 448.571 305.1 447.996 305.1C446.946 305.1 446.321 304.475 446.321 303.325V297.85H449.671V294.85H446.321V291.575H442.421V294.85H440.346V297.85H442.421V303.375C442.421 306.575 444.271 308.2 447.446 308.2C448.646 308.2 449.821 307.925 450.621 307.35L449.571 304.6ZM462.461 294.55V301.2C462.461 303.675 461.161 304.825 459.361 304.825C457.636 304.825 456.636 303.825 456.636 301.575V294.55H452.736V302.15C452.736 306.3 455.111 308.2 458.486 308.2C460.136 308.2 461.636 307.575 462.661 306.4V308H466.361V294.55H462.461ZM473.699 296.325V294.55H469.974V308H473.874V301.65C473.874 299.075 475.299 297.9 477.449 297.9C477.749 297.9 477.999 297.925 478.324 297.95V294.35C476.249 294.35 474.649 295.025 473.699 296.325ZM493.696 301.325C493.696 297 490.646 294.35 486.696 294.35C482.596 294.35 479.521 297.25 479.521 301.275C479.521 305.275 482.546 308.2 487.196 308.2C489.621 308.2 491.496 307.45 492.746 306.025L490.671 303.775C489.746 304.65 488.721 305.075 487.296 305.075C485.246 305.075 483.821 304.05 483.446 302.375H493.621C493.646 302.05 493.696 301.625 493.696 301.325ZM486.721 297.3C488.471 297.3 489.746 298.4 490.021 300.1H483.396C483.671 298.375 484.946 297.3 486.721 297.3Z" fill="#450364"/>
<path d="M76.64 72.32C83.48 68.72 87.8 62.24 87.8 53.84C87.8 40.76 77 32 56 32H14.96V116H58.4C80.48 116 92 107.6 92 93.08C92 82.52 86 75.32 76.64 72.32ZM53.6 46.64C63.08 46.64 68.24 49.88 68.24 56.48C68.24 63.08 63.08 66.44 53.6 66.44H34.28V46.64H53.6ZM56.96 101.36H34.28V80.6H56.96C67.04 80.6 72.44 83.96 72.44 91.04C72.44 98.24 67.04 101.36 56.96 101.36ZM168.638 83.96C168.638 63.2 153.998 50.48 135.038 50.48C115.358 50.48 100.598 64.4 100.598 83.72C100.598 102.92 115.118 116.96 137.438 116.96C149.078 116.96 158.078 113.36 164.078 106.52L154.118 95.72C149.678 99.92 144.758 101.96 137.918 101.96C128.078 101.96 121.238 97.04 119.438 89H168.278C168.398 87.44 168.638 85.4 168.638 83.96ZM135.158 64.64C143.558 64.64 149.678 69.92 150.998 78.08H119.198C120.518 69.8 126.638 64.64 135.158 64.64Z" fill="#450364"/>
<ellipse cx="23.5" cy="40" rx="12.5" ry="12" fill="#C70B7B"/>
<ellipse cx="155.5" cy="108" rx="12.5" ry="12" fill="#C70B7B"/>
<path d="M135.993 277L105.622 233.475C123.225 225.93 133.478 211.035 133.478 190.723C133.478 160.352 110.845 141.587 74.6704 141.587H16.0561V277H47.3944V239.278H74.6704H76.2179L102.333 277H135.993ZM101.753 190.723C101.753 205.425 92.0805 214.323 72.9293 214.323H47.3944V167.122H72.9293C92.0805 167.122 101.753 175.827 101.753 190.723ZM258.126 225.35C258.126 191.884 234.525 171.378 203.961 171.378C172.235 171.378 148.441 193.818 148.441 224.963C148.441 255.914 171.849 278.548 207.83 278.548C226.594 278.548 241.102 272.744 250.775 261.718L234.719 244.308C227.561 251.078 219.63 254.367 208.603 254.367C192.741 254.367 181.714 246.435 178.813 233.475H257.545C257.739 230.96 258.126 227.671 258.126 225.35ZM204.154 194.205C217.695 194.205 227.561 202.717 229.689 215.871H178.426C180.554 202.523 190.419 194.205 204.154 194.205ZM317.361 171.378C300.725 171.378 283.895 175.827 272.482 183.952L283.315 205.038C290.859 199.041 302.272 195.366 313.299 195.366C329.548 195.366 337.286 202.91 337.286 215.871H313.299C281.574 215.871 268.613 228.638 268.613 247.016C268.613 265.006 283.121 278.548 307.495 278.548C322.778 278.548 333.611 273.518 339.221 264.039V277H367.464V217.612C367.464 186.08 349.086 171.378 317.361 171.378ZM315.04 258.236C304.4 258.236 298.016 253.206 298.016 245.662C298.016 238.698 302.466 233.475 316.587 233.475H337.286V244.114C333.804 253.593 325.099 258.236 315.04 258.236ZM471.741 133.463V183.952C464.196 175.441 453.363 171.378 440.596 171.378C411.192 171.378 388.559 192.27 388.559 224.963C388.559 257.655 411.192 278.548 440.596 278.548C454.524 278.548 465.55 274.098 473.095 265.006V277H501.918V133.463H471.741ZM445.819 253.786C430.73 253.786 419.123 242.953 419.123 224.963C419.123 206.972 430.73 196.139 445.819 196.139C460.714 196.139 472.321 206.972 472.321 224.963C472.321 242.953 460.714 253.786 445.819 253.786ZM604.132 172.926L574.728 243.534L545.518 172.926H514.373L559.446 277.774L559.059 278.741C554.997 288.026 550.354 291.702 542.036 291.702C536.039 291.702 529.655 289.187 525.012 285.125L513.986 306.597C520.757 312.594 532.363 316.076 543.003 316.076C561.767 316.076 576.082 308.532 586.141 283.384L633.149 172.926H604.132Z" fill="#450364"/>
<ellipse cx="30" cy="154.5" rx="19" ry="18.5" fill="#C40C7B"/>
<ellipse cx="239" cy="258.5" rx="19" ry="18.5" fill="#C40C7B"/>
<ellipse cx="288" cy="189.5" rx="19" ry="18.5" fill="#C40C7B"/>
<ellipse cx="488" cy="139.5" rx="19" ry="18.5" fill="#C40C7B"/>
<ellipse cx="520" cy="295.5" rx="19" ry="18.5" fill="#C40C7B"/>
<path d="M298.44 47.6V32H234.96V116H254.4V85.4H293.28V69.8H254.4V47.6H298.44ZM354.96 51.44V83.36C354.96 95.24 348.72 100.76 340.08 100.76C331.8 100.76 327 95.96 327 85.16V51.44H308.28V87.92C308.28 107.84 319.68 116.96 335.88 116.96C343.8 116.96 351 113.96 355.92 108.32V116H373.68V51.44H354.96ZM427.623 99.68C425.583 101.24 422.823 102.08 420.063 102.08C415.023 102.08 412.023 99.08 412.023 93.56V67.28H428.103V52.88H412.023V37.16H393.303V52.88H383.343V67.28H393.303V93.8C393.303 109.16 402.183 116.96 417.423 116.96C423.183 116.96 428.823 115.64 432.663 112.88L427.623 99.68ZM489.491 51.44V83.36C489.491 95.24 483.251 100.76 474.611 100.76C466.331 100.76 461.531 95.96 461.531 85.16V51.44H442.811V87.92C442.811 107.84 454.211 116.96 470.411 116.96C478.331 116.96 485.531 113.96 490.451 108.32V116H508.211V51.44H489.491ZM543.434 59.96V51.44H525.554V116H544.274V85.52C544.274 73.16 551.114 67.52 561.434 67.52C562.874 67.52 564.074 67.64 565.634 67.76V50.48C555.674 50.48 547.994 53.72 543.434 59.96ZM639.419 83.96C639.419 63.2 624.779 50.48 605.819 50.48C586.139 50.48 571.379 64.4 571.379 83.72C571.379 102.92 585.899 116.96 608.219 116.96C619.859 116.96 628.859 113.36 634.859 106.52L624.899 95.72C620.459 99.92 615.539 101.96 608.699 101.96C598.859 101.96 592.019 97.04 590.219 89H639.059C639.179 87.44 639.419 85.4 639.419 83.96ZM605.939 64.64C614.339 64.64 620.459 69.92 621.779 78.08H589.979C591.299 69.8 597.419 64.64 605.939 64.64Z" fill="#C40C7B"/>
<ellipse cx="242.5" cy="41" rx="12.5" ry="12" fill="#450364"/>
<ellipse cx="364.5" cy="55" rx="12.5" ry="12" fill="#450364"/>
<ellipse cx="427.5" cy="106" rx="12.5" ry="12" fill="#450364"/>
<ellipse cx="499.5" cy="55" rx="12.5" ry="12" fill="#450364"/>
<ellipse cx="561.5" cy="58" rx="12.5" ry="12" fill="#450364"/>
<ellipse cx="626.5" cy="106" rx="12.5" ry="12" fill="#450364"/>
</svg>
